# xmcd
#
# Track frame offsets:
#	150
#	12821
#	25721
#	37196
#	68921
#	83621
#	103571
#	123071
#
# Disc length: 1810 seconds
#
# Revision: 1
# Processed by: cddbd v1.5.1PL2 Copyright (c) Steve Scherf et al.
# Submitted via: EasyCDDAExtractor 9.0.0.1
#
DISCID=55071008
DTITLE=Motörhead - Paris Theater London 26-03-79 Disc 1
DYEAR=1979
DGENRE=Hard Rock
TTITLE0=Stay Clean
TTITLE1=No Class
TTITLE2=White Line Fever
TTITLE3=I'll Be Your Sister
TTITLE4=Too Late Too Late
TTITLE5=Capricorn
TTITLE6=Limb For Limb
TTITLE7=Radio DJ
EXTD=
EXTT0=
EXTT1=
EXTT2=
EXTT3=
EXTT4=
EXTT5=
EXTT6=
EXTT7=
PLAYORDER=
